<svg width="1920" height="370" viewBox="0 0 1920 370" fill="none" xmlns="http://www.w3.org/2000/svg">
<path d="M1918 185C1918 197.016 1911.69 208.995 1899.12 220.828C1886.56 232.66 1867.92 244.169 1843.73 255.19C1795.36 277.228 1725.24 297.124 1638.44 313.851C1464.88 347.299 1225.01 368 960 368C694.991 368 455.123 347.299 281.556 313.851C194.756 297.124 124.639 277.228 76.2708 255.19C52.0804 244.169 33.4392 232.66 20.875 220.828C8.31026 208.995 2 197.016 2 185C2 172.984 8.31026 161.005 20.875 149.172C33.4392 137.34 52.0804 125.831 76.2708 114.81C124.639 92.7723 194.756 72.8762 281.556 56.1491C455.123 22.7012 694.991 2 960 2C1225.01 2 1464.88 22.7012 1638.44 56.1491C1725.24 72.8762 1795.36 92.7723 1843.73 114.81C1867.92 125.831 1886.56 137.34 1899.12 149.172C1911.69 161.005 1918 172.984 1918 185Z" fill="#09090B" stroke="url(#paint0_radial_4_669)" stroke-width="4"/>
<defs>
<radialGradient id="paint0_radial_4_669" cx="0" cy="0" r="1" gradientUnits="userSpaceOnUse" gradientTransform="translate(960) rotate(90) scale(176.936 918.154)">
<stop stop-color="#694B8E"/>
<stop offset="1" stop-opacity="0"/>
</radialGradient>
</defs>
</svg>
