<svg width="606" height="116" viewBox="0 0 606 116" fill="none" xmlns="http://www.w3.org/2000/svg">
<mask id="mask0_4_670" style="mask-type:luminance" maskUnits="userSpaceOnUse" x="0" y="36" width="80" height="44">
<path d="M79.7368 36H0V80H79.7368V36Z" fill="white"/>
</mask>
<g mask="url(#mask0_4_670)">
<path d="M35.8816 42H75.75" stroke="white" stroke-width="6" stroke-linecap="round"/>
<path d="M19.9342 58H75.75" stroke="white" stroke-width="6" stroke-linecap="round"/>
<path d="M3.98685 74H75.75" stroke="white" stroke-width="6" stroke-linecap="round"/>
</g>
<path d="M125.442 92.96C120.275 92.96 115.268 92.224 110.42 90.752C105.635 89.28 101.84 87.328 99.0332 84.896L103.339 75.2C106.082 77.376 109.431 79.168 113.386 80.576C117.405 81.92 121.423 82.592 125.442 82.592C130.418 82.592 134.117 81.792 136.541 80.192C139.029 78.592 140.273 76.48 140.273 73.856C140.273 71.936 139.571 70.368 138.168 69.152C136.828 67.872 135.106 66.88 133.001 66.176C130.896 65.472 128.025 64.672 124.389 63.776C119.286 62.56 115.14 61.344 111.951 60.128C108.825 58.912 106.114 57.024 103.817 54.464C101.585 51.84 100.468 48.32 100.468 43.904C100.468 40.192 101.457 36.832 103.435 33.824C105.476 30.752 108.506 28.32 112.525 26.528C116.607 24.736 121.583 23.84 127.451 23.84C131.534 23.84 135.553 24.352 139.508 25.376C143.463 26.4 146.875 27.872 149.746 29.792L145.823 39.488C142.888 37.76 139.827 36.448 136.637 35.552C133.448 34.656 130.354 34.208 127.356 34.208C122.444 34.208 118.776 35.04 116.352 36.704C113.992 38.368 112.812 40.576 112.812 43.328C112.812 45.248 113.481 46.816 114.821 48.032C116.224 49.248 117.979 50.208 120.084 50.912C122.189 51.616 125.059 52.416 128.695 53.312C133.671 54.464 137.753 55.68 140.943 56.96C144.132 58.176 146.843 60.064 149.076 62.624C151.372 65.184 152.521 68.64 152.521 72.992C152.521 76.704 151.5 80.064 149.459 83.072C147.481 86.08 144.451 88.48 140.369 90.272C136.286 92.064 131.311 92.96 125.442 92.96ZM220.83 40.736V92H209.444V85.472C207.53 87.776 205.138 89.568 202.268 90.848C199.397 92.064 196.303 92.672 192.986 92.672C186.161 92.672 180.771 90.784 176.816 87.008C172.924 83.168 170.979 77.504 170.979 70.016V40.736H182.939V68.384C182.939 72.992 183.96 76.448 186.001 78.752C188.106 80.992 191.073 82.112 194.9 82.112C199.174 82.112 202.555 80.8 205.042 78.176C207.594 75.488 208.87 71.648 208.87 66.656V40.736H220.83ZM272.468 40.16C277.443 40.16 281.877 41.248 285.768 43.424C289.723 45.6 292.816 48.672 295.049 52.64C297.282 56.608 298.398 61.184 298.398 66.368C298.398 71.552 297.282 76.16 295.049 80.192C292.816 84.16 289.723 87.232 285.768 89.408C281.877 91.584 277.443 92.672 272.468 92.672C265.578 92.672 260.124 90.368 256.106 85.76V110.624H244.145V40.736H255.531V47.456C257.509 45.024 259.933 43.2 262.803 41.984C265.738 40.768 268.959 40.16 272.468 40.16ZM271.128 82.4C275.529 82.4 279.134 80.928 281.94 77.984C284.811 75.04 286.246 71.168 286.246 66.368C286.246 61.568 284.811 57.696 281.94 54.752C279.134 51.808 275.529 50.336 271.128 50.336C268.257 50.336 265.674 51.008 263.378 52.352C261.081 53.632 259.263 55.488 257.924 57.92C256.584 60.352 255.914 63.168 255.914 66.368C255.914 69.568 256.584 72.384 257.924 74.816C259.263 77.248 261.081 79.136 263.378 80.48C265.674 81.76 268.257 82.4 271.128 82.4ZM341.7 82.496C347.249 82.496 351.874 80.64 355.574 76.928L361.889 84.32C359.656 87.072 356.786 89.152 353.277 90.56C349.769 91.968 345.814 92.672 341.412 92.672C335.799 92.672 330.855 91.552 326.581 89.312C322.308 87.072 318.99 83.968 316.63 80C314.334 75.968 313.186 71.424 313.186 66.368C313.186 61.376 314.302 56.896 316.535 52.928C318.831 48.896 321.957 45.76 325.912 43.52C329.93 41.28 334.459 40.16 339.499 40.16C344.283 40.16 348.621 41.216 352.512 43.328C356.467 45.376 359.592 48.352 361.889 52.256C364.185 56.096 365.334 60.608 365.334 65.792L326.199 73.472C327.411 76.416 329.356 78.656 332.035 80.192C334.715 81.728 337.936 82.496 341.7 82.496ZM339.499 49.76C335.097 49.76 331.525 51.2 328.782 54.08C326.103 56.96 324.763 60.832 324.763 65.696V65.792L353.66 60.224C352.831 57.088 351.14 54.56 348.589 52.64C346.101 50.72 343.071 49.76 339.499 49.76ZM395.866 48.224C399.31 42.848 405.37 40.16 414.046 40.16V51.584C413.025 51.392 412.1 51.296 411.271 51.296C406.614 51.296 402.978 52.672 400.363 55.424C397.748 58.112 396.44 62.016 396.44 67.136V92H384.48V40.736H395.866V48.224ZM460.839 40.16C467.282 40.16 472.449 42.048 476.34 45.824C480.231 49.6 482.177 55.2 482.177 62.624V92H470.216V64.16C470.216 59.68 469.164 56.32 467.059 54.08C464.954 51.776 461.955 50.624 458.064 50.624C453.663 50.624 450.186 51.968 447.635 54.656C445.083 57.28 443.807 61.088 443.807 66.08V92H431.847V40.736H443.233V47.36C445.211 44.992 447.698 43.2 450.697 41.984C453.695 40.768 457.076 40.16 460.839 40.16ZM529.776 82.496C535.325 82.496 539.95 80.64 543.65 76.928L549.965 84.32C547.732 87.072 544.862 89.152 541.353 90.56C537.845 91.968 533.89 92.672 529.489 92.672C523.875 92.672 518.931 91.552 514.658 89.312C510.384 87.072 507.067 83.968 504.706 80C502.41 75.968 501.262 71.424 501.262 66.368C501.262 61.376 502.378 56.896 504.611 52.928C506.907 48.896 510.033 45.76 513.988 43.52C518.006 41.28 522.535 40.16 527.575 40.16C532.359 40.16 536.697 41.216 540.588 43.328C544.543 45.376 547.669 48.352 549.965 52.256C552.261 56.096 553.41 60.608 553.41 65.792L514.275 73.472C515.487 76.416 517.432 78.656 520.111 80.192C522.791 81.728 526.012 82.496 529.776 82.496ZM527.575 49.76C523.173 49.76 519.601 51.2 516.858 54.08C514.179 56.96 512.839 60.832 512.839 65.696V65.792L541.736 60.224C540.907 57.088 539.216 54.56 536.665 52.64C534.177 50.72 531.147 49.76 527.575 49.76ZM601.26 89.216C599.856 90.368 598.134 91.232 596.093 91.808C594.115 92.384 592.01 92.672 589.778 92.672C584.164 92.672 579.826 91.2 576.765 88.256C573.703 85.312 572.172 81.024 572.172 75.392V29.408H584.132V41.12H597.815V50.72H584.132V75.104C584.132 77.6 584.738 79.52 585.95 80.864C587.226 82.144 588.98 82.784 591.213 82.784C593.892 82.784 596.125 82.08 597.911 80.672L601.26 89.216Z" fill="white"/>
</svg>
