<svg width="128" height="128" viewBox="0 0 128 128" fill="none" xmlns="http://www.w3.org/2000/svg">
<path d="M57.376 81.024C59.0293 82.6809 61.152 83.4347 63.744 83.2853C66.336 83.1395 68.2276 82.208 69.4187 80.4907L97.4347 41.4347L58.176 69.2533C56.3911 70.4409 55.3973 72.2862 55.1947 74.7893C54.992 77.2924 55.7191 79.3671 57.376 81.024ZM64 26.6667C68.9031 26.6667 73.3653 27.264 77.3867 28.4587C81.4116 29.6498 85.4222 31.472 89.4187 33.9253L84.512 37.248C81.3724 35.5342 78.1227 34.2311 74.7627 33.3387C71.4027 32.4462 67.8151 32 64 32C52.1778 32 42.1102 36.1564 33.7973 44.4693C25.4844 52.7822 21.3298 62.848 21.3333 74.6667C21.3333 78.4 21.8453 82.0889 22.8693 85.7333C23.8933 89.3778 25.3369 92.8 27.2 96H100.8C102.844 92.6222 104.334 89.1111 105.269 85.4667C106.204 81.8222 106.67 78.0444 106.667 74.1333C106.667 70.9333 106.254 67.5662 105.429 64.032C104.604 60.4978 103.3 57.2053 101.515 54.1547L104.843 49.248C107.438 53.6995 109.275 57.888 110.352 61.8133C111.429 65.7387 111.979 69.824 112 74.0693C112.021 78.656 111.511 82.9369 110.469 86.912C109.431 90.8871 107.813 94.8942 105.616 98.9333C105.189 99.6444 104.54 100.222 103.669 100.667C102.798 101.111 101.842 101.333 100.8 101.333H27.2C26.2222 101.333 25.3156 101.095 24.48 100.619C23.648 100.139 22.9476 99.44 22.3787 98.5227C20.6151 95.4115 19.1111 91.9022 17.8667 87.9947C16.6222 84.0871 16 79.6444 16 74.6667C16 68.1102 17.2444 61.9218 19.7333 56.1013C22.2187 50.2809 25.6124 45.184 29.9147 40.8107C34.2169 36.4373 39.3049 32.9849 45.1787 30.4533C51.0524 27.9218 57.3262 26.6595 64 26.6667Z" fill="#F5F5F4"/>
</svg>
