<svg width="128" height="128" viewBox="0 0 128 128" fill="none" xmlns="http://www.w3.org/2000/svg">
<path d="M26.6667 109.333C25.9093 109.333 25.2747 109.079 24.7627 108.571C24.2507 108.062 23.9964 107.428 24 106.667V100.72H22.976C21.8596 100.492 20.8622 100.021 19.984 99.3067C19.1058 98.5956 18.6667 97.6302 18.6667 96.4107V82.048C18.6667 81.2907 18.9209 80.6578 19.4293 80.1493C19.9413 79.6373 20.576 79.3813 21.3333 79.3813H29.3333V37.3333C29.3333 32.1493 31.1484 27.7422 34.7787 24.112C38.4089 20.4818 42.816 18.6667 48 18.6667C53.184 18.6667 57.5911 20.4818 61.2213 24.112C64.8516 27.7422 66.6667 32.1493 66.6667 37.3333V90.6667C66.6667 94.4213 67.9502 97.5822 70.5173 100.149C73.0844 102.716 76.2453 104 80 104C83.7547 104 86.9156 102.716 89.4827 100.149C92.0498 97.5822 93.3333 94.4213 93.3333 90.6667V48.6187H85.3333C84.576 48.6187 83.9413 48.3627 83.4293 47.8507C82.9209 47.3422 82.6667 46.7093 82.6667 45.952V31.5893C82.6667 30.3733 83.1058 29.408 83.984 28.6933C84.8622 27.9787 85.8578 27.5076 86.9707 27.28H88V21.3333C88 20.576 88.2542 19.9413 88.7627 19.4293C89.2711 18.9173 89.9058 18.6631 90.6667 18.6667H101.333C102.094 18.6667 102.729 18.9209 103.237 19.4293C103.746 19.9378 104 20.5724 104 21.3333V27.2853H105.024C106.14 27.5093 107.138 27.9787 108.016 28.6933C108.894 29.4044 109.333 30.3698 109.333 31.5893V45.952C109.333 46.7093 109.079 47.3422 108.571 47.8507C108.062 48.3627 107.428 48.6187 106.667 48.6187H98.6667V90.6667C98.6667 95.8507 96.8516 100.258 93.2213 103.888C89.5911 107.518 85.184 109.333 80 109.333C74.816 109.333 70.4089 107.518 66.7787 103.888C63.1484 100.258 61.3333 95.8507 61.3333 90.6667V37.3333C61.3333 33.5787 60.0498 30.4178 57.4827 27.8507C54.9156 25.2836 51.7547 24 48 24C44.2453 24 41.0844 25.2836 38.5173 27.8507C35.9502 30.4178 34.6667 33.5787 34.6667 37.3333V79.3867H42.6667C43.4276 79.3867 44.0622 79.6409 44.5707 80.1493C45.0791 80.6578 45.3333 81.2907 45.3333 82.048V96.4107C45.3333 97.6267 44.8942 98.592 44.016 99.3067C43.1378 100.021 42.1422 100.491 41.0293 100.715H40V106.667C40 107.428 39.7458 108.062 39.2373 108.571C38.7289 109.079 38.0942 109.333 37.3333 109.333H26.6667Z" fill="#F5F5F4"/>
</svg>
