<svg width="16" height="16" viewBox="0 0 16 16" fill="none" xmlns="http://www.w3.org/2000/svg">
<path d="M4.08875 14C3.30341 14 2.66675 13.3467 2.66675 12.54V6.672C2.66675 6.22867 2.86341 5.80867 3.20008 5.532L7.11141 2.32C7.36132 2.11306 7.67561 1.99982 8.00008 1.99982C8.32455 1.99982 8.63884 2.11306 8.88875 2.32L12.7994 5.532C13.1367 5.80867 13.3334 6.22867 13.3334 6.672V12.54C13.3334 13.3467 12.6967 14 11.9114 14H4.08875Z" stroke="#F8F8F8" stroke-width="0.75" stroke-linecap="round" stroke-linejoin="round"/>
<path d="M6.3335 14V10.3333C6.3335 9.97971 6.47397 9.64057 6.72402 9.39052C6.97407 9.14048 7.31321 9 7.66683 9H8.3335C8.68712 9 9.02626 9.14048 9.2763 9.39052C9.52635 9.64057 9.66683 9.97971 9.66683 10.3333V14" stroke="#F8F8F8" stroke-width="0.75" stroke-linecap="round" stroke-linejoin="round"/>
</svg>
