<svg width="128" height="25" viewBox="0 0 128 25" fill="none" xmlns="http://www.w3.org/2000/svg">
<g clip-path="url(#clip0_9_501)">
<path d="M7.54285 8.8381H15.9238" stroke="white" stroke-width="2.2" stroke-linecap="round"/>
<path d="M4.19043 12.1905H15.9238" stroke="white" stroke-width="2.2" stroke-linecap="round"/>
<path d="M0.838135 15.5428H15.9239" stroke="white" stroke-width="2.2" stroke-linecap="round"/>
<path d="M26.3698 19.2488C25.2836 19.2488 24.231 19.0946 23.2118 18.7861C22.2061 18.4777 21.4083 18.0687 20.8182 17.5592L21.7234 15.5276C22.3 15.9835 23.004 16.359 23.8354 16.654C24.6802 16.9356 25.525 17.0764 26.3698 17.0764C27.4157 17.0764 28.1935 16.9088 28.703 16.5736C29.226 16.2383 29.4875 15.7958 29.4875 15.246C29.4875 14.8437 29.34 14.5152 29.045 14.2604C28.7634 13.9922 28.4013 13.7844 27.9588 13.6369C27.5163 13.4894 26.9129 13.3218 26.1485 13.134C25.0758 12.8792 24.2041 12.6245 23.5337 12.3697C22.8766 12.1149 22.3067 11.7193 21.824 11.1829C21.3546 10.6331 21.12 9.89562 21.12 8.97037C21.12 8.19261 21.3278 7.48861 21.7435 6.85837C22.1726 6.21471 22.8096 5.70515 23.6544 5.32968C24.5126 4.95421 25.5585 4.76648 26.7922 4.76648C27.6504 4.76648 28.4952 4.87376 29.3266 5.08831C30.158 5.30286 30.8754 5.61128 31.4788 6.01357L30.6541 8.04511C30.0373 7.68305 29.3936 7.40816 28.7232 7.22042C28.0527 7.03269 27.4023 6.93882 26.7721 6.93882C25.7395 6.93882 24.9685 7.11315 24.4589 7.46179C23.9628 7.81044 23.7147 8.27307 23.7147 8.84968C23.7147 9.25197 23.8555 9.5805 24.1371 9.83528C24.4321 10.0901 24.8009 10.2912 25.2434 10.4387C25.6859 10.5862 26.2893 10.7538 27.0537 10.9416C28.0996 11.1829 28.9578 11.4377 29.6283 11.7059C30.2988 11.9607 30.8687 12.3563 31.338 12.8927C31.8208 13.429 32.0621 14.1531 32.0621 15.065C32.0621 15.8427 31.8476 16.5467 31.4185 17.177C31.0028 17.8072 30.3658 18.3101 29.5076 18.6856C28.6494 19.061 27.6035 19.2488 26.3698 19.2488ZM46.4218 8.30659V19.0476H44.0282V17.6799C43.6259 18.1626 43.1231 18.5381 42.5196 18.8063C41.9162 19.061 41.2659 19.1884 40.5686 19.1884C39.1337 19.1884 38.0006 18.7928 37.1692 18.0017C36.3513 17.1971 35.9423 16.0104 35.9423 14.4415V8.30659H38.4566V14.0995C38.4566 15.065 38.6711 15.7891 39.1002 16.2719C39.5427 16.7412 40.1663 16.9759 40.9708 16.9759C41.8693 16.9759 42.58 16.701 43.103 16.1512C43.6393 15.588 43.9075 14.7834 43.9075 13.7375V8.30659H46.4218ZM57.2768 8.18591C58.3227 8.18591 59.2547 8.41387 60.0726 8.86979C60.904 9.32572 61.5544 9.96938 62.0237 10.8008C62.4931 11.6322 62.7277 12.5909 62.7277 13.6771C62.7277 14.7633 62.4931 15.7288 62.0237 16.5736C61.5544 17.405 60.904 18.0486 60.0726 18.5045C59.2547 18.9605 58.3227 19.1884 57.2768 19.1884C55.8285 19.1884 54.682 18.7057 53.8372 17.7402V22.9498H51.3229V8.30659H53.7165V9.71459C54.1322 9.20503 54.6418 8.82286 55.2452 8.56808C55.862 8.3133 56.5392 8.18591 57.2768 8.18591ZM56.9952 17.0362C57.9204 17.0362 58.678 16.7278 59.2681 16.1109C59.8715 15.4941 60.1732 14.6828 60.1732 13.6771C60.1732 12.6714 59.8715 11.8601 59.2681 11.2433C58.678 10.6264 57.9204 10.318 56.9952 10.318C56.3917 10.318 55.8486 10.4588 55.3659 10.7404C54.8832 11.0086 54.501 11.3975 54.2194 11.9071C53.9378 12.4166 53.797 13.0066 53.797 13.6771C53.797 14.3476 53.9378 14.9376 54.2194 15.4472C54.501 15.9567 54.8832 16.3523 55.3659 16.6339C55.8486 16.9021 56.3917 17.0362 56.9952 17.0362ZM71.8304 17.0563C72.9971 17.0563 73.9692 16.6674 74.747 15.8897L76.0745 17.4385C75.6052 18.0151 75.0018 18.4509 74.2643 18.7459C73.5267 19.0409 72.6953 19.1884 71.7701 19.1884C70.5901 19.1884 69.5508 18.9538 68.6524 18.4844C67.7539 18.0151 67.0566 17.3647 66.5605 16.5333C66.0777 15.6885 65.8364 14.7365 65.8364 13.6771C65.8364 12.6312 66.071 11.6925 66.5404 10.8611C67.0231 10.0163 67.6802 9.35924 68.5116 8.88991C69.3564 8.42058 70.3085 8.18591 71.3678 8.18591C72.3735 8.18591 73.2854 8.40717 74.1033 8.84968C74.9347 9.27878 75.5918 9.90233 76.0745 10.7203C76.5569 11.5249 76.7984 12.4703 76.7984 13.5564L68.5719 15.1656C68.8267 15.7824 69.2357 16.2517 69.7989 16.5736C70.3621 16.8954 71.0393 17.0563 71.8304 17.0563ZM71.3678 10.1973C70.4425 10.1973 69.6916 10.4991 69.115 11.1025C68.5518 11.7059 68.2702 12.5172 68.2702 13.5363V13.5564L74.3447 12.3898C74.1704 11.7327 73.815 11.2031 73.2787 10.8008C72.7557 10.3985 72.1187 10.1973 71.3678 10.1973ZM83.2167 9.87551C83.9413 8.74911 85.2152 8.18591 87.0384 8.18591V10.5795C86.8243 10.5393 86.6301 10.5192 86.4556 10.5192C85.4765 10.5192 84.7123 10.8075 84.1622 11.3841C83.6129 11.9473 83.3379 12.7653 83.3379 13.838V19.0476H80.8236V8.30659H83.2167V9.87551ZM96.8754 8.18591C98.23 8.18591 99.3158 8.58149 100.134 9.37265C100.952 10.1638 101.361 11.3371 101.361 12.8927V19.0476H98.8464V13.2145C98.8464 12.2758 98.6255 11.5718 98.1828 11.1025C97.7402 10.6197 97.1101 10.3784 96.2918 10.3784C95.3668 10.3784 94.6361 10.66 94.0998 11.2232C93.5634 11.773 93.2952 12.5708 93.2952 13.6168V19.0476H90.7809V8.30659H93.174V9.69448C93.59 9.19833 94.1127 8.82286 94.7436 8.56808C95.3737 8.3133 96.0845 8.18591 96.8754 8.18591ZM111.367 17.0563C112.533 17.0563 113.505 16.6674 114.283 15.8897L115.611 17.4385C115.141 18.0151 114.538 18.4509 113.8 18.7459C113.063 19.0409 112.232 19.1884 111.307 19.1884C110.126 19.1884 109.087 18.9538 108.189 18.4844C107.291 18.0151 106.593 17.3647 106.097 16.5333C105.614 15.6885 105.373 14.7365 105.373 13.6771C105.373 12.6312 105.608 11.6925 106.077 10.8611C106.559 10.0163 107.217 9.35924 108.048 8.88991C108.893 8.42058 109.845 8.18591 110.904 8.18591C111.91 8.18591 112.822 8.40717 113.64 8.84968C114.471 9.27878 115.128 9.90233 115.611 10.7203C116.094 11.5249 116.335 12.4703 116.335 13.5564L108.108 15.1656C108.363 15.7824 108.772 16.2517 109.336 16.5736C109.899 16.8954 110.576 17.0563 111.367 17.0563ZM110.904 10.1973C109.979 10.1973 109.228 10.4991 108.651 11.1025C108.088 11.7059 107.806 12.5172 107.806 13.5363V13.5564L113.881 12.3898C113.707 11.7327 113.352 11.2031 112.815 10.8008C112.292 10.3985 111.655 10.1973 110.904 10.1973ZM126.394 18.4643C126.099 18.7057 125.737 18.8867 125.308 19.0074C124.892 19.1281 124.449 19.1884 123.98 19.1884C122.8 19.1884 121.889 18.88 121.245 18.2632C120.601 17.6463 120.28 16.7479 120.28 15.5679V5.93311H122.794V8.38705H125.67V10.3985H122.794V15.5075C122.794 16.0305 122.921 16.4328 123.176 16.7144C123.444 16.9826 123.813 17.1167 124.282 17.1167C124.845 17.1167 125.314 16.9691 125.69 16.6741L126.394 18.4643Z" fill="white"/>
</g>
<defs>
<clipPath id="clip0_9_501">
<rect width="128" height="24.381" fill="white"/>
</clipPath>
</defs>
</svg>
