<svg width="104" height="28" viewBox="0 0 104 28" fill="none" xmlns="http://www.w3.org/2000/svg">
<path d="M20 19.75C19.8619 19.75 19.75 19.8619 19.75 20C19.75 20.1381 19.8619 20.25 20 20.25C20.4641 20.25 20.9092 20.4344 21.2374 20.7626C21.5656 21.0908 21.75 21.5359 21.75 22C21.75 22.1381 21.8619 22.25 22 22.25C22.1381 22.25 22.25 22.1381 22.25 22C22.25 21.5359 22.4344 21.0908 22.7626 20.7626C23.0908 20.4344 23.5359 20.25 24 20.25C24.1381 20.25 24.25 20.1381 24.25 20C24.25 19.8619 24.1381 19.75 24 19.75C23.5359 19.75 23.0908 19.5656 22.7626 19.2374C22.4344 18.9092 22.25 18.4641 22.25 18C22.25 17.8619 22.1381 17.75 22 17.75C21.8619 17.75 21.75 17.8619 21.75 18C21.75 18.4641 21.5656 18.9092 21.2374 19.2374C20.9092 19.5656 20.4641 19.75 20 19.75ZM20 7.75C19.8619 7.75 19.75 7.86193 19.75 8C19.75 8.13807 19.8619 8.25 20 8.25C20.4641 8.25 20.9092 8.43437 21.2374 8.76256C21.5656 9.09075 21.75 9.53587 21.75 10C21.75 10.1381 21.8619 10.25 22 10.25C22.1381 10.25 22.25 10.1381 22.25 10C22.25 9.53587 22.4344 9.09075 22.7626 8.76256C23.0908 8.43437 23.5359 8.25 24 8.25C24.1381 8.25 24.25 8.13807 24.25 8C24.25 7.86193 24.1381 7.75 24 7.75C23.5359 7.75 23.0908 7.56563 22.7626 7.23744C22.4344 6.90925 22.25 6.46413 22.25 6C22.25 5.86193 22.1381 5.75 22 5.75C21.8619 5.75 21.75 5.86193 21.75 6C21.75 6.46413 21.5656 6.90925 21.2374 7.23744C20.9092 7.56563 20.4641 7.75 20 7.75ZM12.75 20C12.75 20.1381 12.8619 20.25 13 20.25C13.1381 20.25 13.25 20.1381 13.25 20C13.25 18.475 13.8558 17.0125 14.9341 15.9341C16.0125 14.8558 17.475 14.25 19 14.25C19.1381 14.25 19.25 14.1381 19.25 14C19.25 13.8619 19.1381 13.75 19 13.75C17.475 13.75 16.0125 13.1442 14.9341 12.0659C13.8558 10.9875 13.25 9.525 13.25 8C13.25 7.86193 13.1381 7.75 13 7.75C12.8619 7.75 12.75 7.86193 12.75 8C12.75 9.525 12.1442 10.9875 11.0659 12.0659C9.98753 13.1442 8.52499 13.75 7 13.75C6.86193 13.75 6.75 13.8619 6.75 14C6.75 14.1381 6.86193 14.25 7 14.25C8.52499 14.25 9.98753 14.8558 11.0659 15.9341C12.1442 17.0125 12.75 18.475 12.75 20Z" fill="url(#paint0_linear_42_259)" stroke="url(#paint1_linear_42_259)" stroke-width="0.5" stroke-linecap="round" stroke-linejoin="round"/>
<path d="M48 10.812C47.8933 10.6947 47.7387 10.572 47.536 10.444C47.3333 10.3053 47.0933 10.1773 46.816 10.06C46.5387 9.94267 46.24 9.84667 45.92 9.772C45.6 9.69733 45.2693 9.66 44.928 9.66C44.1813 9.66 43.6267 9.79867 43.264 10.076C42.9013 10.3533 42.72 10.7373 42.72 11.228C42.72 11.5907 42.8213 11.8787 43.024 12.092C43.2267 12.2947 43.536 12.4653 43.952 12.604C44.368 12.7427 44.8907 12.892 45.52 13.052C46.288 13.2333 46.9547 13.452 47.52 13.708C48.0853 13.9533 48.5173 14.284 48.816 14.7C49.1147 15.116 49.264 15.6653 49.264 16.348C49.264 16.924 49.1573 17.42 48.944 17.836C48.7307 18.252 48.432 18.5933 48.048 18.86C47.664 19.116 47.2213 19.308 46.72 19.436C46.2187 19.5533 45.68 19.612 45.104 19.612C44.5387 19.612 43.9733 19.5533 43.408 19.436C42.8533 19.3187 42.32 19.148 41.808 18.924C41.3067 18.6893 40.8427 18.4067 40.416 18.076L41.232 16.54C41.3707 16.6787 41.568 16.8333 41.824 17.004C42.0907 17.164 42.3947 17.3187 42.736 17.468C43.088 17.6173 43.4667 17.7453 43.872 17.852C44.288 17.948 44.7093 17.996 45.136 17.996C45.8507 17.996 46.3947 17.8733 46.768 17.628C47.152 17.372 47.344 17.0093 47.344 16.54C47.344 16.156 47.2213 15.852 46.976 15.628C46.7307 15.3933 46.3733 15.196 45.904 15.036C45.4347 14.876 44.8747 14.716 44.224 14.556C43.4773 14.3533 42.8533 14.1347 42.352 13.9C41.8507 13.6547 41.472 13.3453 41.216 12.972C40.9707 12.588 40.848 12.1027 40.848 11.516C40.848 10.7693 41.0293 10.14 41.392 9.628C41.7547 9.10533 42.2453 8.716 42.864 8.46C43.4933 8.19333 44.1973 8.06 44.976 8.06C45.488 8.06 45.9733 8.11867 46.432 8.236C46.8907 8.34267 47.3173 8.492 47.712 8.684C48.1173 8.876 48.4853 9.09467 48.816 9.34L48 10.812ZM50.7416 16.252V11.132H52.5016V15.9C52.5016 16.6467 52.635 17.212 52.9016 17.596C53.179 17.9693 53.579 18.156 54.1016 18.156C54.4323 18.156 54.7523 18.0867 55.0616 17.948C55.3816 17.8093 55.6696 17.6067 55.9256 17.34C56.1923 17.0627 56.4056 16.732 56.5656 16.348V11.132H58.3256V17.516C58.3256 17.7187 58.363 17.8627 58.4376 17.948C58.5123 18.0333 58.635 18.0813 58.8056 18.092V19.5C58.6243 19.532 58.475 19.5533 58.3576 19.564C58.2403 19.5747 58.1283 19.58 58.0216 19.58C57.7016 19.58 57.435 19.4947 57.2216 19.324C57.0083 19.1427 56.8856 18.9133 56.8536 18.636L56.8216 17.804C56.4483 18.412 55.963 18.876 55.3656 19.196C54.7683 19.5053 54.1123 19.66 53.3976 19.66C52.523 19.66 51.8616 19.372 51.4136 18.796C50.9656 18.22 50.7416 17.372 50.7416 16.252ZM65.3236 19.66C64.6516 19.66 64.0596 19.5 63.5476 19.18C63.0356 18.86 62.6303 18.444 62.3316 17.932V22.908H60.5716V11.132H62.1236V12.636C62.4436 12.1347 62.8596 11.7347 63.3716 11.436C63.8836 11.1373 64.4543 10.988 65.0836 10.988C65.6596 10.988 66.1876 11.1053 66.6676 11.34C67.1476 11.564 67.5636 11.8787 67.9156 12.284C68.2676 12.6893 68.5396 13.1533 68.7316 13.676C68.9343 14.188 69.0356 14.732 69.0356 15.308C69.0356 16.108 68.8756 16.8387 68.5556 17.5C68.2463 18.1613 67.809 18.6893 67.2436 19.084C66.689 19.468 66.049 19.66 65.3236 19.66ZM64.7476 18.156C65.121 18.156 65.457 18.076 65.7556 17.916C66.065 17.756 66.3263 17.5427 66.5396 17.276C66.7636 17.0093 66.9343 16.7053 67.0516 16.364C67.169 16.0227 67.2276 15.6707 67.2276 15.308C67.2276 14.924 67.1636 14.5613 67.0356 14.22C66.9076 13.8787 66.721 13.58 66.4756 13.324C66.241 13.068 65.9636 12.8653 65.6436 12.716C65.3343 12.5667 64.993 12.492 64.6196 12.492C64.3956 12.492 64.161 12.5347 63.9156 12.62C63.6703 12.7053 63.441 12.8227 63.2276 12.972C63.0143 13.1213 62.8276 13.2973 62.6676 13.5C62.5076 13.7027 62.3956 13.916 62.3316 14.14V16.332C62.481 16.6733 62.6783 16.9827 62.9236 17.26C63.169 17.5267 63.4516 17.7453 63.7716 17.916C64.0916 18.076 64.417 18.156 64.7476 18.156ZM74.4105 19.66C73.7598 19.66 73.1678 19.548 72.6345 19.324C72.1118 19.0893 71.6585 18.7747 71.2745 18.38C70.8905 17.9747 70.5918 17.516 70.3785 17.004C70.1758 16.4813 70.0745 15.9267 70.0745 15.34C70.0745 14.5507 70.2558 13.8307 70.6185 13.18C70.9812 12.5187 71.4878 11.9907 72.1385 11.596C72.7892 11.1907 73.5518 10.988 74.4265 10.988C75.3012 10.988 76.0532 11.1907 76.6825 11.596C77.3225 11.9907 77.8185 12.5133 78.1705 13.164C78.5225 13.8147 78.6985 14.5133 78.6985 15.26C78.6985 15.388 78.6932 15.5107 78.6825 15.628C78.6718 15.7347 78.6612 15.8253 78.6505 15.9H71.9465C71.9785 16.3907 72.1118 16.8227 72.3465 17.196C72.5918 17.5587 72.9012 17.8467 73.2745 18.06C73.6478 18.2627 74.0478 18.364 74.4745 18.364C74.9438 18.364 75.3865 18.2467 75.8025 18.012C76.2292 17.7773 76.5172 17.468 76.6665 17.084L78.1705 17.516C77.9892 17.9213 77.7118 18.2893 77.3385 18.62C76.9758 18.94 76.5438 19.196 76.0425 19.388C75.5412 19.5693 74.9972 19.66 74.4105 19.66ZM71.8985 14.732H76.9545C76.9225 14.252 76.7838 13.8307 76.5385 13.468C76.3038 13.0947 75.9998 12.8067 75.6265 12.604C75.2638 12.3907 74.8585 12.284 74.4105 12.284C73.9732 12.284 73.5678 12.3907 73.1945 12.604C72.8318 12.8067 72.5332 13.0947 72.2985 13.468C72.0638 13.8307 71.9305 14.252 71.8985 14.732ZM84.8381 12.652C84.1555 12.6627 83.5475 12.8173 83.0141 13.116C82.4915 13.4147 82.1181 13.836 81.8941 14.38V19.5H80.1341V11.132H81.7661V13.004C82.0541 12.428 82.4328 11.9693 82.9021 11.628C83.3715 11.276 83.8675 11.084 84.3901 11.052C84.4968 11.052 84.5821 11.052 84.6461 11.052C84.7208 11.052 84.7848 11.0573 84.8381 11.068V12.652ZM88.9194 8.14H90.6154L95.0314 19.5H93.1434L91.9434 16.412H87.5594L86.3754 19.5H84.4714L88.9194 8.14ZM91.5914 15.084L89.7674 10.108L87.8794 15.084H91.5914ZM96.4363 19.5V8.14H98.2283V19.5H96.4363Z" fill="white"/>
<defs>
<linearGradient id="paint0_linear_42_259" x1="15.5" y1="6" x2="15.5" y2="22" gradientUnits="userSpaceOnUse">
<stop stop-color="#A855F7"/>
<stop offset="1" stop-color="#06B6D4"/>
</linearGradient>
<linearGradient id="paint1_linear_42_259" x1="15.5" y1="6" x2="15.5" y2="22" gradientUnits="userSpaceOnUse">
<stop stop-color="#A855F7"/>
<stop offset="1" stop-color="#06B6D4"/>
</linearGradient>
</defs>
</svg>
