<svg width="131" height="28" viewBox="0 0 131 28" fill="none" xmlns="http://www.w3.org/2000/svg">
<path d="M14.04 6.30501C16.235 5.63801 18.655 6.08101 20.4 7.48101C21.786 8.58901 22.588 10.167 22.652 11.821L22.655 12.033L22.746 12.036C25.046 12.143 26.889 13.997 26.996 16.306L27 16.517C27 18.924 25.115 20.889 22.745 20.999L22.535 21.004H10.657L10.435 20.996C7.495 20.886 5.118 18.597 5.005 15.733L5 15.517C5 12.77 7.08 10.507 9.784 10.1L9.898 10.084L9.968 9.90301C10.631 8.28301 12.024 6.99701 13.797 6.38501L14.041 6.30501H14.04Z" fill="url(#paint0_linear_40_550)"/>
<path d="M46 10.812C45.8933 10.6947 45.7387 10.572 45.536 10.444C45.3333 10.3053 45.0933 10.1773 44.816 10.06C44.5387 9.94267 44.24 9.84667 43.92 9.772C43.6 9.69733 43.2693 9.66 42.928 9.66C42.1813 9.66 41.6267 9.79867 41.264 10.076C40.9013 10.3533 40.72 10.7373 40.72 11.228C40.72 11.5907 40.8213 11.8787 41.024 12.092C41.2267 12.2947 41.536 12.4653 41.952 12.604C42.368 12.7427 42.8907 12.892 43.52 13.052C44.288 13.2333 44.9547 13.452 45.52 13.708C46.0853 13.9533 46.5173 14.284 46.816 14.7C47.1147 15.116 47.264 15.6653 47.264 16.348C47.264 16.924 47.1573 17.42 46.944 17.836C46.7307 18.252 46.432 18.5933 46.048 18.86C45.664 19.116 45.2213 19.308 44.72 19.436C44.2187 19.5533 43.68 19.612 43.104 19.612C42.5387 19.612 41.9733 19.5533 41.408 19.436C40.8533 19.3187 40.32 19.148 39.808 18.924C39.3067 18.6893 38.8427 18.4067 38.416 18.076L39.232 16.54C39.3707 16.6787 39.568 16.8333 39.824 17.004C40.0907 17.164 40.3947 17.3187 40.736 17.468C41.088 17.6173 41.4667 17.7453 41.872 17.852C42.288 17.948 42.7093 17.996 43.136 17.996C43.8507 17.996 44.3947 17.8733 44.768 17.628C45.152 17.372 45.344 17.0093 45.344 16.54C45.344 16.156 45.2213 15.852 44.976 15.628C44.7307 15.3933 44.3733 15.196 43.904 15.036C43.4347 14.876 42.8747 14.716 42.224 14.556C41.4773 14.3533 40.8533 14.1347 40.352 13.9C39.8507 13.6547 39.472 13.3453 39.216 12.972C38.9707 12.588 38.848 12.1027 38.848 11.516C38.848 10.7693 39.0293 10.14 39.392 9.628C39.7547 9.10533 40.2453 8.716 40.864 8.46C41.4933 8.19333 42.1973 8.06 42.976 8.06C43.488 8.06 43.9733 8.11867 44.432 8.236C44.8907 8.34267 45.3173 8.492 45.712 8.684C46.1173 8.876 46.4853 9.09467 46.816 9.34L46 10.812ZM48.7416 16.252V11.132H50.5016V15.9C50.5016 16.6467 50.635 17.212 50.9016 17.596C51.179 17.9693 51.579 18.156 52.1016 18.156C52.4323 18.156 52.7523 18.0867 53.0616 17.948C53.3816 17.8093 53.6696 17.6067 53.9256 17.34C54.1923 17.0627 54.4056 16.732 54.5656 16.348V11.132H56.3256V17.516C56.3256 17.7187 56.363 17.8627 56.4376 17.948C56.5123 18.0333 56.635 18.0813 56.8056 18.092V19.5C56.6243 19.532 56.475 19.5533 56.3576 19.564C56.2403 19.5747 56.1283 19.58 56.0216 19.58C55.7016 19.58 55.435 19.4947 55.2216 19.324C55.0083 19.1427 54.8856 18.9133 54.8536 18.636L54.8216 17.804C54.4483 18.412 53.963 18.876 53.3656 19.196C52.7683 19.5053 52.1123 19.66 51.3976 19.66C50.523 19.66 49.8616 19.372 49.4136 18.796C48.9656 18.22 48.7416 17.372 48.7416 16.252ZM63.3236 19.66C62.6516 19.66 62.0596 19.5 61.5476 19.18C61.0356 18.86 60.6303 18.444 60.3316 17.932V22.908H58.5716V11.132H60.1236V12.636C60.4436 12.1347 60.8596 11.7347 61.3716 11.436C61.8836 11.1373 62.4543 10.988 63.0836 10.988C63.6596 10.988 64.1876 11.1053 64.6676 11.34C65.1476 11.564 65.5636 11.8787 65.9156 12.284C66.2676 12.6893 66.5396 13.1533 66.7316 13.676C66.9343 14.188 67.0356 14.732 67.0356 15.308C67.0356 16.108 66.8756 16.8387 66.5556 17.5C66.2463 18.1613 65.809 18.6893 65.2436 19.084C64.689 19.468 64.049 19.66 63.3236 19.66ZM62.7476 18.156C63.121 18.156 63.457 18.076 63.7556 17.916C64.065 17.756 64.3263 17.5427 64.5396 17.276C64.7636 17.0093 64.9343 16.7053 65.0516 16.364C65.169 16.0227 65.2276 15.6707 65.2276 15.308C65.2276 14.924 65.1636 14.5613 65.0356 14.22C64.9076 13.8787 64.721 13.58 64.4756 13.324C64.241 13.068 63.9636 12.8653 63.6436 12.716C63.3343 12.5667 62.993 12.492 62.6196 12.492C62.3956 12.492 62.161 12.5347 61.9156 12.62C61.6703 12.7053 61.441 12.8227 61.2276 12.972C61.0143 13.1213 60.8276 13.2973 60.6676 13.5C60.5076 13.7027 60.3956 13.916 60.3316 14.14V16.332C60.481 16.6733 60.6783 16.9827 60.9236 17.26C61.169 17.5267 61.4516 17.7453 61.7716 17.916C62.0916 18.076 62.417 18.156 62.7476 18.156ZM72.4105 19.66C71.7598 19.66 71.1678 19.548 70.6345 19.324C70.1118 19.0893 69.6585 18.7747 69.2745 18.38C68.8905 17.9747 68.5918 17.516 68.3785 17.004C68.1758 16.4813 68.0745 15.9267 68.0745 15.34C68.0745 14.5507 68.2558 13.8307 68.6185 13.18C68.9812 12.5187 69.4878 11.9907 70.1385 11.596C70.7892 11.1907 71.5518 10.988 72.4265 10.988C73.3012 10.988 74.0532 11.1907 74.6825 11.596C75.3225 11.9907 75.8185 12.5133 76.1705 13.164C76.5225 13.8147 76.6985 14.5133 76.6985 15.26C76.6985 15.388 76.6932 15.5107 76.6825 15.628C76.6718 15.7347 76.6612 15.8253 76.6505 15.9H69.9465C69.9785 16.3907 70.1118 16.8227 70.3465 17.196C70.5918 17.5587 70.9012 17.8467 71.2745 18.06C71.6478 18.2627 72.0478 18.364 72.4745 18.364C72.9438 18.364 73.3865 18.2467 73.8025 18.012C74.2292 17.7773 74.5172 17.468 74.6665 17.084L76.1705 17.516C75.9892 17.9213 75.7118 18.2893 75.3385 18.62C74.9758 18.94 74.5438 19.196 74.0425 19.388C73.5412 19.5693 72.9972 19.66 72.4105 19.66ZM69.8985 14.732H74.9545C74.9225 14.252 74.7838 13.8307 74.5385 13.468C74.3038 13.0947 73.9998 12.8067 73.6265 12.604C73.2638 12.3907 72.8585 12.284 72.4105 12.284C71.9732 12.284 71.5678 12.3907 71.1945 12.604C70.8318 12.8067 70.5332 13.0947 70.2985 13.468C70.0638 13.8307 69.9305 14.252 69.8985 14.732ZM82.8381 12.652C82.1555 12.6627 81.5475 12.8173 81.0141 13.116C80.4915 13.4147 80.1181 13.836 79.8941 14.38V19.5H78.1341V11.132H79.7661V13.004C80.0541 12.428 80.4328 11.9693 80.9021 11.628C81.3715 11.276 81.8675 11.084 82.3901 11.052C82.4968 11.052 82.5821 11.052 82.6461 11.052C82.7208 11.052 82.7848 11.0573 82.8381 11.068V12.652ZM87.7543 19.66C87.1036 19.66 86.5116 19.548 85.9783 19.324C85.4556 19.0893 85.0023 18.7693 84.6183 18.364C84.2343 17.9587 83.9356 17.4947 83.7223 16.972C83.5196 16.4493 83.4183 15.8947 83.4183 15.308C83.4183 14.5187 83.5943 13.7987 83.9463 13.148C84.3089 12.4973 84.8103 11.9747 85.4503 11.58C86.1009 11.1853 86.8689 10.988 87.7543 10.988C88.6076 10.988 89.3489 11.18 89.9783 11.564C90.6183 11.9373 91.0876 12.4387 91.3863 13.068L89.6743 13.612C89.4823 13.26 89.2103 12.988 88.8583 12.796C88.5169 12.5933 88.1383 12.492 87.7223 12.492C87.2529 12.492 86.8263 12.6147 86.4423 12.86C86.0689 13.0947 85.7703 13.4253 85.5463 13.852C85.3329 14.268 85.2263 14.7533 85.2263 15.308C85.2263 15.8413 85.3383 16.3267 85.5623 16.764C85.7863 17.1907 86.0849 17.532 86.4583 17.788C86.8423 18.0333 87.2689 18.156 87.7383 18.156C88.0263 18.156 88.3036 18.108 88.5703 18.012C88.8476 17.9053 89.0876 17.7667 89.2903 17.596C89.4929 17.4147 89.6369 17.2173 89.7223 17.004L91.4503 17.516C91.2689 17.932 90.9969 18.3 90.6343 18.62C90.2823 18.94 89.8609 19.196 89.3703 19.388C88.8903 19.5693 88.3516 19.66 87.7543 19.66ZM92.9158 7.82H94.6758V17.084C94.6758 17.5107 94.7398 17.7827 94.8678 17.9C94.9958 18.0173 95.1558 18.076 95.3478 18.076C95.5611 18.076 95.7584 18.0547 95.9398 18.012C96.1318 17.9693 96.2971 17.916 96.4358 17.852L96.6918 19.244C96.4358 19.3507 96.1318 19.4413 95.7798 19.516C95.4278 19.5907 95.1131 19.628 94.8358 19.628C94.2384 19.628 93.7691 19.4627 93.4278 19.132C93.0864 18.7907 92.9158 18.3213 92.9158 17.724V7.82ZM101.472 19.66C100.811 19.66 100.219 19.548 99.6963 19.324C99.1736 19.0893 98.7203 18.7693 98.3363 18.364C97.9629 17.9587 97.6749 17.5 97.4723 16.988C97.2696 16.4653 97.1683 15.9107 97.1683 15.324C97.1683 14.7373 97.2696 14.1827 97.4723 13.66C97.6749 13.1373 97.9629 12.6787 98.3363 12.284C98.7203 11.8787 99.1736 11.564 99.6963 11.34C100.23 11.1053 100.822 10.988 101.472 10.988C102.123 10.988 102.71 11.1053 103.232 11.34C103.766 11.564 104.219 11.8787 104.592 12.284C104.976 12.6787 105.27 13.1373 105.472 13.66C105.675 14.1827 105.776 14.7373 105.776 15.324C105.776 15.9107 105.675 16.4653 105.472 16.988C105.27 17.5 104.976 17.9587 104.592 18.364C104.219 18.7693 103.766 19.0893 103.232 19.324C102.71 19.548 102.123 19.66 101.472 19.66ZM98.9763 15.34C98.9763 15.8733 99.0883 16.3533 99.3123 16.78C99.5363 17.2067 99.8349 17.5427 100.208 17.788C100.582 18.0333 101.003 18.156 101.472 18.156C101.931 18.156 102.347 18.0333 102.72 17.788C103.104 17.532 103.408 17.1907 103.632 16.764C103.856 16.3267 103.968 15.8467 103.968 15.324C103.968 14.7907 103.856 14.3107 103.632 13.884C103.408 13.4573 103.104 13.1213 102.72 12.876C102.347 12.62 101.931 12.492 101.472 12.492C101.003 12.492 100.582 12.62 100.208 12.876C99.8349 13.132 99.5363 13.4733 99.3123 13.9C99.0883 14.316 98.9763 14.796 98.9763 15.34ZM107.257 16.252V11.132H109.017V15.9C109.017 16.6467 109.151 17.212 109.417 17.596C109.695 17.9693 110.095 18.156 110.617 18.156C110.948 18.156 111.268 18.0867 111.577 17.948C111.897 17.8093 112.185 17.6067 112.441 17.34C112.708 17.0627 112.921 16.732 113.081 16.348V11.132H114.841V17.516C114.841 17.7187 114.879 17.8627 114.953 17.948C115.028 18.0333 115.151 18.0813 115.321 18.092V19.5C115.14 19.532 114.991 19.5533 114.873 19.564C114.756 19.5747 114.644 19.58 114.537 19.58C114.217 19.58 113.951 19.4947 113.737 19.324C113.524 19.1427 113.401 18.9133 113.369 18.636L113.337 17.804C112.964 18.412 112.479 18.876 111.881 19.196C111.284 19.5053 110.628 19.66 109.913 19.66C109.039 19.66 108.377 19.372 107.929 18.796C107.481 18.22 107.257 17.372 107.257 16.252ZM116.559 15.324C116.559 14.524 116.719 13.7987 117.039 13.148C117.37 12.4867 117.818 11.964 118.383 11.58C118.949 11.1853 119.599 10.988 120.335 10.988C120.975 10.988 121.551 11.1533 122.063 11.484C122.586 11.8147 122.991 12.2253 123.279 12.716V7.82H125.039V17.516C125.039 17.7187 125.077 17.8627 125.151 17.948C125.226 18.0333 125.349 18.0813 125.519 18.092V19.5C125.189 19.5533 124.933 19.58 124.751 19.58C124.421 19.58 124.138 19.484 123.903 19.292C123.679 19.1 123.562 18.8707 123.551 18.604L123.535 17.98C123.215 18.5133 122.783 18.9293 122.239 19.228C121.695 19.516 121.13 19.66 120.543 19.66C119.967 19.66 119.434 19.548 118.943 19.324C118.463 19.1 118.042 18.7853 117.679 18.38C117.327 17.9747 117.05 17.5107 116.847 16.988C116.655 16.4653 116.559 15.9107 116.559 15.324ZM123.279 16.492V14.3C123.162 13.9587 122.97 13.6547 122.703 13.388C122.447 13.1107 122.154 12.892 121.823 12.732C121.503 12.572 121.183 12.492 120.863 12.492C120.49 12.492 120.149 12.572 119.839 12.732C119.541 12.892 119.279 13.1053 119.055 13.372C118.842 13.6387 118.677 13.9427 118.559 14.284C118.442 14.6253 118.383 14.9827 118.383 15.356C118.383 15.74 118.447 16.1027 118.575 16.444C118.703 16.7747 118.885 17.0733 119.119 17.34C119.365 17.596 119.642 17.7987 119.951 17.948C120.271 18.0867 120.618 18.156 120.991 18.156C121.226 18.156 121.461 18.1133 121.695 18.028C121.941 17.9427 122.17 17.8253 122.383 17.676C122.607 17.5267 122.794 17.3507 122.943 17.148C123.103 16.9453 123.215 16.7267 123.279 16.492Z" fill="white"/>
<defs>
<linearGradient id="paint0_linear_40_550" x1="5" y1="14" x2="27" y2="14" gradientUnits="userSpaceOnUse">
<stop stop-color="#3B82F6"/>
<stop offset="1" stop-color="#234C90"/>
</linearGradient>
</defs>
</svg>
